<svg xmlns="http://www.w3.org/2000/svg" width="268.089" height="100.099" viewBox="0 0 268.08933 100.09895"><g style="line-height:125%" font-weight="700" font-size="90" font-family="Brannboll Fet" letter-spacing="0" word-spacing="0" fill="#ffffff"><path d="M2.456 81.18q-.99-2.88-1.53-5.49-1.08-5.22-.9-10.8 0-2.7.27-5.31.27-2.7.72-5.31.45-2.61.99-5.13.63-2.52 1.35-5.04.45-1.26.81-2.52.36-1.26.81-2.52.45-1.26.9-2.43.54-1.17 1.08-2.43.54-1.26 1.08-2.43.54-1.17 1.17-2.34l1.17-2.34q.63-1.17 1.35-2.34.72-1.17 1.44-2.25t1.44-2.25l1.62-2.16q.81-1.08 1.71-2.07 3.33-4.32 7.83-7.83 2.43-1.89 4.68-3.24 1.26-.81 2.61-1.44l2.7-1.26q2.7-.99 5.85-1.71.72-.18 1.44-.27.81-.09 1.53-.18h.81q.36-.09.72-.09h1.53q2.61 0 4.41 1.89 1.89 1.8 1.89 4.41 0 2.61-1.8 4.41-1.8 1.8-4.41 1.89h-.9q-.27 0-.54.09h-.45l-.9.18q-.45 0-.9.09-1.62.36-3.6 1.08-3.42 1.44-6.84 4.05-1.62 1.26-3.15 2.79-1.53 1.53-2.97 3.15-1.35 1.62-2.7 3.51-.72.9-1.35 1.8-.54.9-1.17 1.89-2.34 3.78-4.32 7.92-1.89 4.14-3.42 8.46-1.53 4.41-2.43 8.73-.45 2.25-.81 4.5-.27 2.16-.45 4.41t-.18 4.5q.09 2.16.36 4.23.54 4.5 2.16 7.83.45.9.9 1.71.54.81 1.17 1.53 1.17 1.35 2.7 2.43 1.35.9 3.33 1.62 1.89.54 3.96.81h1.08l.27.09H28.466q.54-.09 1.08-.09 1.08-.18 2.07-.27 1.08-.18 2.16-.45.99-.27 1.98-.63 1.08-.36 2.07-.81 1.89-.9 3.87-2.16 3.51-2.34 6.75-5.85-1.89-1.26-3.69-3.06-.99-.99-1.89-2.07-.9-1.08-1.71-2.16-.81-1.17-1.53-2.25-.63-1.17-1.35-2.43-.63-1.26-1.17-2.43l-1.08-2.52q-1.98-5.13-2.88-10.35-.9-5.22-.63-10.98.18-1.35.27-2.7.18-1.44.45-2.88.36-1.44.72-2.79t.9-2.79q1.08-2.88 2.79-5.49.99-1.26 2.07-2.52 1.08-1.26 2.43-2.34 1.17-.99 2.88-1.89 1.62-.9 3.15-1.26 1.8-.63 3.33-.72.81-.09 1.62-.09h1.62l.45.09h.36q.36 0 1.08.18 1.08.18 1.98.54.45.18.9.45.54.18.99.45.45.27.81.54.36.27.72.63.72.63 1.26 1.35.63.72 1.08 1.44.45.72.72 1.44.36.63.63 1.35.18.45.27.81.09.27.18.63.18.45.36 1.35.18.72.27 1.44.09.63.27 1.35.18 1.35.27 2.7.09 1.26.09 2.61.09 1.26 0 2.61 0 1.26-.09 2.52 0 1.26-.09 2.61-.09 1.26-.27 2.52-.09 1.26-.27 2.52-.18 1.17-.36 2.43-.18 1.26-.45 2.52-.18 1.26-.54 2.52-.27 1.26-.54 2.43-.27 1.17-.72 2.43l-.36 1.26q-.18.54-.36 1.17-.18.63-.45 1.26l-.36 1.08q-.45 1.26-.9 2.43-.45 1.17-.99 2.34l-1.08 2.34q-.54 1.08-1.17 2.25-.45.72-.81 1.44-.36.72-.81 1.44 1.44.45 3.24.63 1.08 0 2.07-.09 1.08-.09 2.16-.36 2.07-.54 4.23-1.53.99-.45 1.98-.99 1.08-.63 2.07-1.35.99-.63 1.89-1.35.9-.72 1.89-1.44.45-.45 1.08-.36.72.09 1.17.54.45.45.36 1.08-.09.63-.54 1.08-1.8 1.8-3.78 3.42-1.89 1.62-4.23 2.97-1.08.72-2.34 1.26-1.17.54-2.43.99-1.26.45-2.61.81-1.35.27-2.88.36-1.35.18-2.88 0-1.53-.18-2.79-.54-.36-.09-.9-.27-.36.36-.72.9-1.62 2.07-3.51 3.96-1.89 1.8-4.05 3.42-1.89 1.53-4.5 2.97-2.34 1.35-5.04 2.25-2.52.81-5.31 1.35l-2.7.27h-.36q-.18.09-.36.09h-.99l-.36.09h-.72q-1.44 0-2.88-.18-1.44-.09-2.88-.45-3.06-.72-5.67-2.16-1.35-.72-2.61-1.71-1.26-.9-2.34-1.98-1.08-1.08-1.98-2.25-.9-1.26-1.71-2.52-1.53-2.61-2.43-5.22zm42.66-21.06q.45 2.16.99 4.32.63 2.07 1.62 4.05.99 2.07 2.16 3.69 1.08 1.35 2.34 2.61.45-.72.81-1.35.45-.63.9-1.35 1.26-2.07 2.25-4.14.99-2.16 1.8-4.32.27-.63.45-1.17.27-.54.45-1.08l.36-1.08q.18-.63.36-1.17.36-1.17.63-2.25.36-1.17.63-2.34.54-2.34.9-4.68.45-2.34.63-4.68.45-4.77-.27-9.36-.18-1.17-.45-2.25-.18-1.17-.63-2.16-.72-2.16-1.8-3.78l-.54-.72q-.27-.36-.63-.54-.54-.54-1.08-.81-.36-.09-.9-.09-.27 0-.45.09l-.18.09h-.27l-.18.09q-.81.18-1.53.45t-1.44.63q-1.08.72-2.25 1.89-.54.54-.99 1.26-.45.63-.9 1.35-.45.81-.81 1.62-.36.81-.72 1.71-.72 1.8-1.17 3.87-.36 1.98-.63 4.05-.27 2.16-.45 4.32-.09 2.16 0 4.41 0 1.08.09 2.25l.18 2.16.27 2.16q.18.63.18 1.17.09.54.27 1.08z" style="-inkscape-font-specification:'Brannboll Fet Bold'"/><path d="M107.545 79.56q-.63 1.53-1.35 2.97l-1.44 2.88q-.81 1.44-1.71 2.88-.9 1.35-1.98 2.7-.45.72-1.08 1.35-.54.63-1.17 1.26-.72.63-1.44 1.17-.63.63-1.44 1.17-1.8 1.17-3.6 1.8-.9.36-2.07.54-.27.09-.54.09t-.54.09h-1.17q-1.44 0-2.88-.54-.72-.27-1.35-.63-.54-.36-1.08-.81l-.9-.9q-.45-.45-.81-.9-.36-.45-.63-.99l-.54-.9-.54-.9-.36-.9q-.18-.45-.36-.81l-.36-.9q-.27-.9-.54-1.71l-.36-1.8q-.81-3.42-1.08-6.66-.18-1.62-.27-3.24-.09-1.71-.09-3.33V69.3q.09-.81.09-1.62t.09-1.53v-.9q.09-.45.09-.9-.09-.99.18-2.16.18-2.25.45-4.41t.54-4.41q.9-6.3 2.25-12.42 1.35-6.21 3.33-12.42.45-1.53.99-2.97.54-1.53 1.17-3.06.27-.72.54-1.53t.63-1.53q.36-.72.63-1.44.27-.81.63-1.53 1.44-3.15 3.24-5.85 1.71-2.79 4.32-5.4l.63-.63q.36-.36.81-.63.36-.36.72-.63t.81-.54l.9-.54q.45-.27.99-.45.99-.54 2.16-.72.36-.09.63-.09h1.62q.18 0 .27.09.54 0 1.44.36.63.27 1.35.81.27.27.45.63.27.27.45.54.36.54.54 1.17.36.99.36 2.07.09.99 0 1.89-.09.81-.27 1.62-.18.9-.36 1.71-.09.72-.27 1.53-.18.81-.45 1.62-.27.72-.45 1.44-.18.45-.27.81 0 .36-.18.72l-.54 1.53q-.45 1.53-.99 2.97-.45 1.44-.99 2.97l-.54 1.44-.54 1.44-1.08 2.97q-2.16 5.85-4.59 11.61-2.43 5.85-5.13 11.61l-1.44 2.88q-.63 1.44-1.35 2.88-.45.72-.81 1.53-.27.72-.63 1.44l-.81 1.44-.36.72q-.09.36-.09.72t-.09.81q-.09.72-.09 1.53 0 .72-.09 1.44l-.18 1.44q0 .72-.09 1.44-.09 1.53-.18 2.97V82.89q.09.63.18 1.35.09.72.09 1.35.09.63.27 1.26.18.63.27 1.17.18.54.36.99.18.63.36.81.09.45.27.54.18.18.18.27l.18.09h.81q.63 0 .99-.09.72-.09 1.98-.72 1.17-.63 2.07-1.35.54-.45 1.08-.81.54-.45.99-.9.99-.99 1.89-2.07.9-1.08 1.8-2.34.9-1.17 1.71-2.43.81-1.26 1.53-2.52.45-.63.72-1.26.36-.63.81-1.35.18-.36.27-.63l.36-.72.36-.63.27-.63.09-.09q.36-.72.99-.99.72-.27 1.44.09 1.44.72.99 2.25l-.09.36-.09.45q-.09.18-.27.72-.18.45-.27.81-.09.27-.27.72l-1.08 2.97zm-16.74-36.27q-.18.63-.36 1.53.72-.99 1.35-2.07.63-1.08 1.26-2.07 3.15-5.4 5.67-10.89t4.59-11.34q.18-.36.27-.63.09-.36.18-.81.18-.36.27-.63.09-.36.18-.81l.36-1.44q.18-.72.27-1.44.18-.72.27-1.44.09-.72.09-1.44V8.46q-.09-.36-.09-.63 0-.36-.18-.63-.18-.72-.36-.9 0-.18-.18-.18 0-.09-.09-.09v.18h-.09l-.09.09h-.09l-.09.09q-.09 0-.27.18-.36.09-.63.54l-.36.36-.36.36q-.27.45-.63.99-.27.54-.63 1.08l-1.08 2.43q-.27.72-.54 1.35-.27.54-.54 1.26-.18.72-.45 1.35-.27.63-.54 1.35l-.99 2.7q-.99 2.79-1.8 5.67-.81 2.79-1.62 5.67-1.53 5.85-2.7 11.61z" style="-inkscape-font-specification:'Brannboll Fet Bold'"/><path d="M104.93 89.19q-.18-.81-.18-1.53 0-.81-.09-1.53v-2.79q.09-2.7.54-5.4.18-1.26.45-2.52.18-1.35.36-2.61l.54-2.52q.27-1.35.63-2.61.27-1.26.54-2.43l.72-2.52q.36-1.26.72-2.43.36-1.17.72-2.43l1.62-4.86.81-2.43.45-1.17q.18-.36.18-.63.09-.27.27-.63.99-2.43 3.33-3.42 2.43-1.08 4.86-.09 2.43.99 3.51 3.33 1.08 2.34.09 4.77-.09.09-.09.27h-.09l-.45 1.08-.45 1.08-.54 1.08-.36 1.08q-.45 1.17-.99 2.25-.45 1.08-.9 2.25-.45 1.08-.9 2.25-.36 1.08-.81 2.25-.45 1.08-.81 2.25-.36 1.08-.81 2.25-.45 1.08-.81 2.25-.27 1.08-.72 2.25-.36 1.08-.63 2.25-.27 1.08-.54 2.25-.36 1.08-.63 2.25l-.36 2.16-.18 1.08q0 .54-.09.99 0 .54-.09 1.08v.9q.09.45.09.9 0 .36.09.72v.27q.09.09.09.18.09.18.09.36v.18q.09 0 .09.09h.45q.09 0 .09.09h.18q.27 0 .45-.09.18 0 .72-.18.63-.27 1.62-.9.99-.63 1.71-1.26l.9-.72q.45-.36.9-.81 1.62-1.53 3.33-3.33.81-.9 1.62-1.71.81-.9 1.62-1.89.72-.99 1.89-2.52 1.26-1.53 1.98-2.52.45-.45.72-.9.36-.54.81-.99l.72-.99.36-.54q.18-.27.36-.45.36-.45.9-.54.63-.18 1.17.18.9.72.45 1.8-.18.27-.36.63-.09.27-.27.54l-.54 1.08q-.54 1.35-1.17 2.25-.63 1.17-1.62 2.88-.99 1.71-1.62 2.79l-1.44 2.16q-.63 1.08-1.35 2.16-.72 1.08-1.53 2.16-.72.99-1.53 1.98l-.9 1.08q-.36.54-.81.99l-.99.99q-.54.54-1.08.99-1.26 1.08-2.43 1.8l-.72.36q-.36.27-.81.45-.72.36-1.98.63h-.27l-.27.09h-.45q-.36.09-.99.09-1.17 0-2.16-.36-.54-.18-1.17-.36-.54-.18-1.08-.54-1.08-.72-1.8-1.53-.9-.99-1.26-1.8-.54-.9-.81-1.8-.36-.9-.45-1.71-.18-.81-.36-1.53zm24.21-57.33q-3.33 0-5.67-2.25-2.25-2.34-2.25-5.67t2.25-5.58q2.34-2.34 5.67-2.34 3.24 0 5.58 2.34 2.34 2.25 2.34 5.58t-2.34 5.67q-2.34 2.25-5.58 2.25z" style="-inkscape-font-specification:'Brannboll Fet Bold'"/><path d="M188.588 70.92q.45-.27.99-.09.63.09.9.54.45.72 0 1.44-.27.45-.54.81l-.54.72-.36.36q-.09.18-.27.36l-.36.36-.36.36q-1.35 1.44-3.06 2.52-1.89 1.17-3.78 1.8-.99.36-2.07.54-1.08.09-2.25.18h-1.08q-.54 0-1.08-.09-.63-.09-1.17-.09-.54-.09-1.08-.27-.45-.18-.9-.27-.45-.09-.9-.27-.45.45-.81.99-.27.45-.72.9-1.08 1.44-2.16 2.79t-2.25 2.79l-4.41 5.58-1.08 1.44-1.08 1.44-.63.72-.54.72-1.08 1.53q-1.8 1.53-4.05 1.35-2.16-.18-3.69-1.98-.54-.54-.81-1.26-.27-.63-.45-1.35v-.09l-5.58-34.29q-1.17 3.78-2.7 7.74-1.53 3.42-2.7 5.58-1.08 2.16-1.17 2.25-.45.72-1.17.72-.36 0-.63-.27-.54-.27-.63-.81-.18-.54.09-.99 0-.09 1.08-1.98 1.08-1.98 2.43-5.04 1.35-3.15 2.52-7.02 1.26-3.96 1.62-7.92l-.36-2.25q-.36-2.25.9-4.05 1.35-1.8 3.6-2.25 2.34-.36 4.14.99 1.8 1.35 2.16 3.6l5.94 36.18q.99-.72 1.8-1.44.9-.72 1.89-1.44 1.53-1.26 2.97-2.52 1.53-1.35 3.06-2.79-2.52-1.71-4.5-4.41-.81-.9-1.26-1.89-.63-1.08-.99-2.07-.18-.45-.45-.99-.18-.63-.36-1.17-.18-.54-.27-1.08l-.18-1.26q-.09-.63-.18-1.17V62.1v-1.17l.18-1.26q.36-2.34 1.53-4.77 1.35-2.34 2.97-3.87l.18-.18.18-.09v-.09q.18-.18.27-.18l.27-.27q.18-.18.45-.36l.54-.36q.45-.36.99-.63l1.08-.54q2.25-1.08 4.68-1.26 1.44-.18 2.61.09 1.26.09 2.61.72 1.44.63 2.34 1.44.99.99 1.62 1.98.36.54.54 1.08.27.54.45 1.08l.27 1.08q.18.72.18.99.09.18.09.54v.27h.09v1.35q0 .63-.09 1.17 0 .45-.09.99-.18.99-.54 1.89-.27.9-.63 1.8-.72 1.8-1.53 3.42-.81 1.62-1.8 3.15-.45.72-.99 1.53-.45.72-.99 1.44.9.45 1.89.54 2.7.54 5.4-.09 1.62-.45 2.88-1.08.54-.18.72-.36.54-.18.72-.36.45-.18.72-.36.36-.27.81-.45zm-20.61-7.56q.09.27.09.54t.09.54l.27 1.08q.18.27.18.54.09.27.27.63l.54 1.08q1.17 1.89 2.7 3.15l1.08-1.44 1.08-1.44q1.08-1.44 1.8-2.88.18-.36.36-.63.18-.36.36-.81.18-.36.27-.72l.36-.72q.63-1.71.63-2.97.09-.81 0-1.35-.09-.18-.09-.27 0-.18-.09-.36v-.18l-.09-.09v-.09q0-.09-.09-.09v-.18q-.18-.36-.36-.63-.18-.36-.36-.63-.36-.63-.72-.81-.54-.36-.9-.36-.27-.09-.81-.09-.72.09-1.71.54-.99.63-1.71 1.26-.54.54-.72.81l-.36.36q0 .09-.18.27v.09h-.09v.09q-.63.81-1.08 1.8-.18.45-.36.99-.09.45-.27.9v.45q-.09.18-.09.54v1.08z" style="-inkscape-font-specification:'Brannboll Fet Bold'"/><path d="M186.14 89.19q-.18-.81-.18-1.53 0-.81-.09-1.53v-2.79q.09-2.7.54-5.4.18-1.26.45-2.52.18-1.35.36-2.61l.54-2.52q.27-1.35.63-2.61.27-1.26.54-2.43l.72-2.52q.36-1.26.72-2.43.36-1.17.72-2.43l1.62-4.86.81-2.43.45-1.17q.18-.36.18-.63.09-.27.27-.63.99-2.43 3.33-3.42 2.43-1.08 4.86-.09 2.43.99 3.51 3.33 1.08 2.34.09 4.77-.09.09-.09.27h-.09l-.45 1.08-.45 1.08-.54 1.08-.36 1.08q-.45 1.17-.99 2.25-.45 1.08-.9 2.25-.45 1.08-.9 2.25-.36 1.08-.81 2.25-.45 1.08-.81 2.25-.36 1.08-.81 2.25-.45 1.08-.81 2.25-.27 1.08-.72 2.25-.36 1.08-.63 2.25-.27 1.08-.54 2.25-.36 1.08-.63 2.25l-.36 2.16-.18 1.08q0 .54-.09.99 0 .54-.09 1.08v.9q.09.45.09.9 0 .36.09.72v.27q.09.09.09.18.09.18.09.36v.18q.09 0 .09.09h.45q.09 0 .09.09h.18q.27 0 .45-.09.18 0 .72-.18.63-.27 1.62-.9.99-.63 1.71-1.26l.9-.72q.45-.36.9-.81 1.62-1.53 3.33-3.33.81-.9 1.62-1.71.81-.9 1.62-1.89.72-.99 1.89-2.52 1.26-1.53 1.98-2.52.45-.45.72-.9.36-.54.81-.99l.72-.99.36-.54q.18-.27.36-.45.36-.45.9-.54.63-.18 1.17.18.9.72.45 1.8-.18.27-.36.63-.09.27-.27.54l-.54 1.08q-.54 1.35-1.17 2.25-.63 1.17-1.62 2.88-.99 1.71-1.62 2.79l-1.44 2.16q-.63 1.08-1.35 2.16-.72 1.08-1.53 2.16-.72.99-1.53 1.98l-.9 1.08q-.36.54-.81.99l-.99.99q-.54.54-1.08.99-1.26 1.08-2.43 1.8l-.72.36q-.36.27-.81.45-.72.36-1.98.63h-.27l-.27.09h-.45q-.36.09-.99.09-1.17 0-2.16-.36-.54-.18-1.17-.36-.54-.18-1.08-.54-1.08-.72-1.8-1.53-.9-.99-1.26-1.8-.54-.9-.81-1.8-.36-.9-.45-1.71-.18-.81-.36-1.53zm24.21-57.33q-3.33 0-5.67-2.25-2.25-2.34-2.25-5.67t2.25-5.58q2.34-2.34 5.67-2.34 3.24 0 5.58 2.34 2.34 2.25 2.34 5.58t-2.34 5.67q-2.34 2.25-5.58 2.25z" style="-inkscape-font-specification:'Brannboll Fet Bold'"/><path d="M257.11 95.04q-.9 1.08-1.8 1.62-.45.45-1.08.81-.63.36-1.35.63-.81.36-1.53.45-.09.09-.18.09H250.72v.09h-.54q-.09.09-.27.09-1.26.18-2.7 0-.72-.09-1.44-.27-.72-.09-1.53-.45-1.44-.54-2.79-1.71t-2.07-2.43q-.9-1.26-1.26-2.61-.54-1.17-.81-2.43-.18-.63-.27-1.17 0-.63-.09-1.26l-.18-1.08v-1.08q-.18.45-.36.81l-.36.72q-.36.72-.72 1.53-.36.72-.81 1.44-.72 1.44-1.8 2.88-.54.72-1.08 1.35-.54.72-1.26 1.44-.36.36-.72.63t-.81.63q-.81.54-1.89 1.08-.45.18-.99.36t-1.17.27h-.18q0 .09-.18.09h-.81q-.36.09-.63 0h-.63q-.54-.09-1.17-.27-.63-.09-1.26-.36-1.26-.54-2.16-1.44-.99-.81-1.53-1.8-.36-.45-.63-.99t-.45-.99q-.45-.99-.63-1.89-.27-.9-.45-1.89-.18-.9-.18-1.8l-.18-1.8v-1.71q0-.9.09-1.8.09-1.71.36-3.33.18-1.71.54-3.42.27-1.62.72-3.24l.9-3.24q1.17-3.42 2.43-6.39.72-1.53 1.53-3.06t1.8-3.06q.9-1.44 2.16-2.97.63-.72 1.26-1.35.63-.72 1.35-1.44 1.26-1.26 3.24-2.52 1.71-1.17 4.14-1.89 1.17-.45 2.43-.54 1.26-.18 2.52-.18 2.43.18 4.86.99 1.98.72 4.05 2.07.45.36.81.72.45.27.81.63.54.36.81.63.27.09.36.36l.36.27q1.89 1.8 1.98 4.32.09 2.52-1.62 4.41-1.8 1.8-4.32 1.98-2.52.09-4.32-1.71-.18-.09-.27-.18 0-.09-.18-.18l-.09-.18-.09-.09-.18-.18q-.09-.18-.18-.18l-.18-.18-.72-.72q-.45-.36-.81-.54-.27-.27-.63-.45t-.63-.27q-.27-.09-.54-.09-.63-.09-1.26 0-.81 0-1.62.54-.45.18-.9.45t-.9.63q-.99.72-1.89 1.71-.81.9-1.71 1.89-.81 1.08-1.62 2.25-.72 1.08-1.44 2.34-.72 1.26-1.35 2.61-.54 1.26-1.17 2.52-1.17 2.79-1.89 5.49-.45 1.35-.81 2.79-.27 1.35-.45 2.79-.18.72-.27 1.35 0 .63-.09 1.35v1.35q0 .63.09 1.35 0 .63.09 1.26.09.54.27.99l.18.54.18.36.18.36q.09.09.18.27.18.09.45.36l.54.18q.09 0 .09.09H223.99q.27 0 .81-.18.9-.18 1.89-.99.45-.45.9-.81.54-.45.99-.99l.9-1.08q.45-.54.9-1.17l1.62-2.43q.72-1.26 1.44-2.61.72-1.35 1.44-2.79 1.26-2.52 2.43-5.58l.36-.9q.18-.54.36-.99.18-.9.36-1.35l.18-.9q.09-.54.27-1.08.09-.27.27-.99l.18-.54q.09-.18.09-.27 0-.09.09-.27v-.18q.9-2.43 3.15-3.6 2.34-1.17 4.86-.36 2.52.81 3.69 3.15 1.17 2.25.36 4.77-.18.36-.18.54l-.18.36-.18.36-.27.81q-.18.45-.36.81-.09.36-.27.81l-.54 1.62q-.27.81-.54 1.71-.18.81-.45 1.62t-.45 1.71q-.09.45-.18.81-.09.36-.18.81l-.27 1.62q-.18.81-.27 1.62-.09.72-.09 1.44-.18.72 0 1.35 0 .9.09 1.26 0 .36.18.9.18.36.18.54.09.18.36.45.09.09.63.36.54.18 1.08.18.18 0 .27.09h.18-.09.36q.18-.09.45-.09.27-.09.54-.27l.54-.36q.27-.18.63-.36.63-.45 1.17-.99.63-.54 1.17-1.26 1.26-1.26 2.34-2.61l1.08-1.44q.63-.81 1.08-1.53l.54-.72q.27-.36.54-.81.63-.72.99-1.53.27-.45.54-.81.27-.36.45-.81.63-.72.99-1.53.27-.45.45-.81.27-.36.54-.81l.45-.81.45-.81v-.09q.36-.45.9-.63t1.08.09q1.08.63.72 1.71l-.18.45-.18.54-.27.9-.36.9q-.09.45-.27.9l-.36.9-.36.9q-.27.81-.72 1.8l-.36.9-.36.9q-.18.45-.45.9l-.36.9-.9 1.8q-.45.81-.9 1.71-.99 1.8-2.16 3.51-.99 1.62-2.7 3.33z" style="-inkscape-font-specification:'Brannboll Fet Bold'"/></g></svg>
